<svg width="24" height="24" viewBox="0 0 24 24" fill="none" xmlns="http://www.w3.org/2000/svg">
<path d="M7.20812 8.46154H16.7926M7.20812 8.46154C6.7111 8.46154 6.46197 8.46154 6.27214 8.5873C6.10516 8.69792 5.96949 8.87431 5.88441 9.09142C5.78768 9.33824 5.78768 9.66159 5.78768 10.3078V16.3078C5.78768 17.6002 5.78768 18.2466 5.98113 18.7402C6.1513 19.1744 6.42263 19.5275 6.7566 19.7487C7.1359 20 7.63268 20 8.62477 20H15.3746C16.3666 20 16.8627 20 17.242 19.7487C17.576 19.5275 17.8485 19.1744 18.0187 18.7401C18.212 18.247 18.212 17.6019 18.212 16.312V10.2973C18.212 9.65809 18.212 9.33691 18.1158 9.09142C18.0307 8.87431 17.8944 8.69792 17.7274 8.5873C17.5376 8.46154 17.2896 8.46154 16.7926 8.46154M7.20812 8.46154H5.76577C5.01224 8.46154 4.6357 8.46154 4.42184 8.29026C4.13645 8.0617 3.97464 7.64322 4.00325 7.20901C4.02471 6.88334 4.249 6.48949 4.69831 5.70084C4.82826 5.47274 4.89325 5.35866 4.9728 5.27156C5.07886 5.15542 5.20472 5.07295 5.33963 5.03126C5.44081 5 5.54941 5 5.76775 5H18.2314C18.4498 5 18.5586 5 18.6598 5.03126C18.7947 5.07295 18.9205 5.15542 19.0266 5.27156C19.1062 5.35866 19.1714 5.4722 19.3013 5.70031C19.7506 6.48894 19.9753 6.88328 19.9968 7.20894C20.0254 7.64316 19.863 8.0617 19.5776 8.29026C19.3637 8.46154 18.9863 8.46154 18.2328 8.46154H16.7926M10.2249 14.2308H13.7747" stroke="#121212" stroke-width="0.761905" stroke-linecap="round" stroke-linejoin="round"/>
</svg>
