<svg width="24" height="24" viewBox="0 0 24 24" fill="none" xmlns="http://www.w3.org/2000/svg">
<path d="M19 5.57576V13.5V16.9091C19 18.6162 15.866 20 12 20C8.13401 20 5 18.6162 5 16.9091V13.5V5.57576M19 5.57576C19 3.8687 15.866 3 12 3C8.13401 3 5 3.8687 5 5.57576M19 5.57576C19 6.5 15.866 7.5 12 7.5C8.13401 7.5 5 6.5 5 5.57576" stroke="#121212" stroke-linecap="round" stroke-linejoin="round"/>
<path d="M12 17C11.3879 17 10.8578 16.836 10.4095 16.5079C9.96121 16.1799 9.61207 15.7196 9.36207 15.127C9.12069 14.5238 9 13.8148 9 13C9 12.3862 9.06897 11.836 9.2069 11.3492C9.34483 10.8519 9.54741 10.4286 9.81466 10.0794C10.0819 9.73016 10.3966 9.46561 10.7586 9.28572C11.1293 9.09524 11.5431 9 12 9C12.6121 9 13.1422 9.16402 13.5905 9.49206C14.0388 9.82011 14.3836 10.2857 14.625 10.8889C14.875 11.4815 15 12.1852 15 13C15 13.6138 14.931 14.164 14.7931 14.6508C14.6552 15.1376 14.4526 15.5608 14.1853 15.9206C13.9181 16.2698 13.5991 16.5397 13.2284 16.7302C12.8664 16.9101 12.4569 17 12 17ZM12 15.9683C12.3879 15.9683 12.7284 15.8519 13.0216 15.619C13.3147 15.3862 13.5388 15.0476 13.694 14.6032C13.8578 14.1587 13.9397 13.6243 13.9397 13C13.9397 12.037 13.7629 11.3016 13.4095 10.7937C13.0647 10.2857 12.5948 10.0317 12 10.0317C11.6034 10.0317 11.2586 10.1481 10.9655 10.381C10.681 10.6032 10.4569 10.9365 10.2931 11.381C10.1379 11.8148 10.0603 12.3545 10.0603 13C10.0603 13.9524 10.2371 14.6878 10.5905 15.2063C10.944 15.7143 11.4138 15.9683 12 15.9683Z" fill="black"/>
</svg>
