<svg width="24" height="24" viewBox="0 0 24 24" fill="none" xmlns="http://www.w3.org/2000/svg">
<path d="M19 5.57576V13.5V16.9091C19 18.6162 15.866 20 12 20C8.13401 20 5 18.6162 5 16.9091V13.5V5.57576M19 5.57576C19 3.8687 15.866 3 12 3C8.13401 3 5 3.8687 5 5.57576M19 5.57576C19 6.5 15.866 7.5 12 7.5C8.13401 7.5 5 6.5 5 5.57576" stroke="#121212" stroke-linecap="round" stroke-linejoin="round"/>
<path d="M12.0067 16C11.8374 16 11.7038 15.9554 11.6058 15.8661C11.5078 15.7769 11.4588 15.6511 11.4588 15.4888V10.7911H9.5078C9.16927 10.7911 9 10.6572 9 10.3895C9 10.2677 9.04454 10.1744 9.13363 10.1095C9.22272 10.0365 9.34744 10 9.5078 10H14.5056C14.8352 10 15 10.1298 15 10.3895C15 10.5193 14.9555 10.6207 14.8664 10.6937C14.7862 10.7586 14.6659 10.7911 14.5056 10.7911H12.5412V15.4888C12.5412 15.6511 12.4967 15.7769 12.4076 15.8661C12.3274 15.9554 12.1938 16 12.0067 16Z" fill="black"/>
</svg>
