<svg width="24" height="24" viewBox="0 0 24 24" fill="none" xmlns="http://www.w3.org/2000/svg">
<path d="M19 5.57576V13.5V16.9091C19 18.6162 15.866 20 12 20C8.13401 20 5 18.6162 5 16.9091V13.5V5.57576M19 5.57576C19 3.8687 15.866 3 12 3C8.13401 3 5 3.8687 5 5.57576M19 5.57576C19 6.5 15.866 7.5 12 7.5C8.13401 7.5 5 6.5 5 5.57576" stroke="#121212" stroke-linecap="round" stroke-linejoin="round"/>
<path d="M9.58019 16C9.39151 16 9.24528 15.9554 9.14151 15.8661C9.04717 15.7769 9 15.6511 9 15.4888V10.5598C9 10.3732 9.0566 10.2353 9.16981 10.146C9.28302 10.0487 9.4434 10 9.65094 10H14.3491C14.5566 10 14.717 10.0487 14.8302 10.146C14.9434 10.2353 15 10.3732 15 10.5598V15.4888C15 15.6511 14.9481 15.7769 14.8443 15.8661C14.7406 15.9554 14.5991 16 14.4198 16C14.2406 16 14.0991 15.9554 13.9953 15.8661C13.9009 15.7769 13.8538 15.6511 13.8538 15.4888V10.7911H10.1462V15.4888C10.1462 15.6511 10.0991 15.7769 10.0047 15.8661C9.91038 15.9554 9.76887 16 9.58019 16Z" fill="black"/>
</svg>
