<svg width="24" height="24" viewBox="0 0 24 24" fill="none" xmlns="http://www.w3.org/2000/svg">
<path d="M19 6.57576V14.5V17.9091C19 19.6162 15.866 21 12 21C8.13401 21 5 19.6162 5 17.9091V14.5V6.57576M19 6.57576C19 4.8687 15.866 4 12 4C8.13401 4 5 4.8687 5 6.57576M19 6.57576C19 7.5 15.866 8.5 12 8.5C8.13401 8.5 5 7.5 5 6.57576" stroke="#121212" stroke-linecap="round" stroke-linejoin="round"/>
<path d="M9.52358 17C9.41981 17 9.32547 16.98 9.24057 16.94C9.16509 16.908 9.10377 16.852 9.0566 16.772C9.01887 16.692 9 16.592 9 16.472V11.48C9 11.32 9.04717 11.2 9.14151 11.12C9.23585 11.04 9.36321 11 9.52358 11C9.6934 11 9.82075 11.04 9.90566 11.12C10 11.2 10.0472 11.32 10.0472 11.48V15.992H9.6934L13.8113 11.312C13.8868 11.224 13.9764 11.152 14.0802 11.096C14.184 11.032 14.316 11 14.4764 11C14.5896 11 14.684 11.016 14.7594 11.048C14.8349 11.08 14.8915 11.136 14.9292 11.216C14.9764 11.288 15 11.388 15 11.516V16.52C15 16.672 14.9528 16.792 14.8585 16.88C14.7736 16.96 14.6462 17 14.4764 17C14.3066 17 14.1745 16.96 14.0802 16.88C13.9953 16.792 13.9528 16.672 13.9528 16.52V11.996H14.4764L10.1745 16.688C10.1085 16.768 10.0236 16.84 9.91981 16.904C9.82547 16.968 9.6934 17 9.52358 17Z" fill="black"/>
</svg>
