<svg width="24" height="24" viewBox="0 0 24 24" fill="none" xmlns="http://www.w3.org/2000/svg">
<path d="M19 5.57576V13.5V16.9091C19 18.6162 15.866 20 12 20C8.13401 20 5 18.6162 5 16.9091V13.5V5.57576M19 5.57576C19 3.8687 15.866 3 12 3C8.13401 3 5 3.8687 5 5.57576M19 5.57576C19 6.5 15.866 7.5 12 7.5C8.13401 7.5 5 6.5 5 5.57576" stroke="#121212" stroke-linecap="round" stroke-linejoin="round"/>
<path d="M12.0055 18C11.858 18 11.7437 17.957 11.6625 17.8711C11.5814 17.7852 11.5408 17.6641 11.5408 17.5078V16.7344L11.7953 17.0039H11.5187C10.7884 17.0039 10.1614 16.8594 9.63762 16.5703C9.11388 16.2813 8.70816 15.875 8.42047 15.3516C8.14016 14.8203 8 14.1914 8 13.4648C8 12.9102 8.07746 12.4141 8.23237 11.9766C8.38728 11.5391 8.61595 11.1719 8.9184 10.875C9.22084 10.5703 9.58967 10.3398 10.0249 10.1836C10.4601 10.0195 10.958 9.9375 11.5187 9.9375H11.7953L11.5408 10.207V9.49219C11.5408 9.32812 11.5814 9.20703 11.6625 9.12891C11.7437 9.04297 11.858 9 12.0055 9C12.1531 9 12.2637 9.04297 12.3375 9.12891C12.4186 9.20703 12.4592 9.32812 12.4592 9.49219V10.207L12.2158 9.9375H12.4924C13.2374 9.9375 13.8718 10.0781 14.3956 10.3594C14.9193 10.6406 15.3177 11.0469 15.5906 11.5781C15.8635 12.1016 16 12.7305 16 13.4648C16 14.0117 15.9189 14.5039 15.7566 14.9414C15.6017 15.3789 15.373 15.75 15.0705 16.0547C14.7681 16.3594 14.3993 16.5938 13.964 16.7578C13.5288 16.9219 13.0383 17.0039 12.4924 17.0039H12.2158L12.4592 16.7344V17.5078C12.4592 17.6641 12.4223 17.7852 12.3485 17.8711C12.2748 17.957 12.1604 18 12.0055 18ZM11.5519 16.4297V10.5117L11.7732 10.7109H11.3859C11.0171 10.7109 10.6814 10.7734 10.379 10.8984C10.0765 11.0156 9.81835 11.1914 9.60443 11.4258C9.3905 11.6602 9.22453 11.9492 9.1065 12.293C8.99585 12.6289 8.94053 13.0195 8.94053 13.4648C8.94053 14.0352 9.0438 14.5273 9.25035 14.9414C9.45689 15.3555 9.74458 15.6719 10.1134 15.8906C10.4822 16.1094 10.9064 16.2188 11.3859 16.2188H11.7732L11.5519 16.4297ZM12.4592 16.4297L12.2268 16.2188H12.6141C12.9756 16.2188 13.3075 16.1562 13.61 16.0312C13.9124 15.9062 14.1706 15.7266 14.3845 15.4922C14.5984 15.25 14.7644 14.9609 14.8824 14.625C15.0005 14.2813 15.0595 13.8945 15.0595 13.4648C15.0595 12.8711 14.9599 12.3711 14.7607 11.9648C14.5615 11.5508 14.2775 11.2383 13.9087 11.0273C13.5473 10.8164 13.1157 10.7109 12.6141 10.7109H12.2268L12.4592 10.5117V16.4297Z" fill="black"/>
</svg>
