<svg width="24" height="24" viewBox="0 0 24 24" fill="none" xmlns="http://www.w3.org/2000/svg">
<path d="M19 5.57576V13.5V16.9091C19 18.6162 15.866 20 12 20C8.13401 20 5 18.6162 5 16.9091V13.5V5.57576M19 5.57576C19 3.8687 15.866 3 12 3C8.13401 3 5 3.8687 5 5.57576M19 5.57576C19 6.5 15.866 7.5 12 7.5C8.13401 7.5 5 6.5 5 5.57576" stroke="#121212" stroke-linecap="round" stroke-linejoin="round"/>
<path d="M9.432 16C9.296 16 9.188 15.96 9.108 15.88C9.036 15.792 9 15.676 9 15.532V10.516C9 10.404 9.016 10.312 9.048 10.24C9.08 10.16 9.128 10.1 9.192 10.06C9.256 10.02 9.336 10 9.432 10C9.528 10 9.608 10.016 9.672 10.048C9.736 10.072 9.792 10.112 9.84 10.168C9.888 10.216 9.928 10.276 9.96 10.348L12 13.984L14.04 10.348C14.072 10.276 14.112 10.216 14.16 10.168C14.208 10.112 14.264 10.072 14.328 10.048C14.392 10.016 14.468 10 14.556 10C14.7 10 14.808 10.044 14.88 10.132C14.952 10.212 14.988 10.34 14.988 10.516V15.532C14.988 15.676 14.952 15.792 14.88 15.88C14.808 15.96 14.7 16 14.556 16C14.42 16 14.312 15.96 14.232 15.88C14.16 15.792 14.124 15.676 14.124 15.532V11.2H14.4L12.348 14.8C12.316 14.864 12.272 14.92 12.216 14.968C12.16 15.008 12.088 15.028 12 15.028C11.904 15.028 11.828 15.004 11.772 14.956C11.724 14.908 11.68 14.856 11.64 14.8L9.588 11.2H9.864V15.532C9.864 15.676 9.824 15.792 9.744 15.88C9.672 15.96 9.568 16 9.432 16Z" fill="black"/>
</svg>
