<svg width="24" height="24" viewBox="0 0 24 24" fill="none" xmlns="http://www.w3.org/2000/svg">
<path d="M19 5.57576V13.5V16.9091C19 18.6162 15.866 20 12 20C8.13401 20 5 18.6162 5 16.9091V13.5V5.57576M19 5.57576C19 3.8687 15.866 3 12 3C8.13401 3 5 3.8687 5 5.57576M19 5.57576C19 6.5 15.866 7.5 12 7.5C8.13401 7.5 5 6.5 5 5.57576" stroke="#77A6FF" stroke-linecap="round" stroke-linejoin="round"/>
<path d="M9.39106 17C9.26443 17 9.1676 16.9625 9.10056 16.8876C9.03352 16.8127 9 16.7079 9 16.573V15.1798C9 14.8802 9.14898 14.7303 9.44693 14.7303H9.98324L9.44693 14.9213C9.64804 14.6517 9.80819 14.3596 9.92737 14.0449C10.054 13.7228 10.1471 13.3633 10.2067 12.9663C10.2663 12.5693 10.2961 12.1161 10.2961 11.6067V10.5169C10.2961 10.3446 10.3408 10.2172 10.4302 10.1348C10.5196 10.0449 10.6462 10 10.8101 10H13.6257C13.797 10 13.9237 10.0449 14.0056 10.1348C14.095 10.2172 14.1397 10.3446 14.1397 10.5169V15.1461L13.7263 14.7303H14.5531C14.6946 14.7303 14.8026 14.7678 14.8771 14.8427C14.959 14.9176 15 15.03 15 15.1798V16.573C15 16.8577 14.8696 17 14.6089 17C14.4823 17 14.3855 16.9625 14.3184 16.8876C14.2514 16.8127 14.2179 16.7079 14.2179 16.573V15.4607H9.77095V16.573C9.77095 16.8577 9.64432 17 9.39106 17ZM10.4413 14.7303H13.2793V10.7191H11.1006V11.764C11.1006 12.3258 11.0447 12.8689 10.933 13.3933C10.8212 13.9101 10.6574 14.3558 10.4413 14.7303Z" fill="#77A6FF"/>
</svg>
