<svg width="24" height="24" viewBox="0 0 24 24" fill="none" xmlns="http://www.w3.org/2000/svg">
<path d="M11.5 10.4799V20M11.5 10.4799C11.5 8.91171 11.5 8.12795 11.7725 7.52899C12.0122 7.00213 12.3943 6.57363 12.8647 6.30519C13.3995 6 14.0997 6 15.4998 6H17.6665C18.1332 6 18.3667 6 18.545 6.10173C18.7018 6.19121 18.829 6.33389 18.9089 6.50951C18.9997 6.70917 19 6.97072 19 7.49344V15.7069C19 16.2296 18.9997 16.4906 18.9089 16.6903C18.829 16.8659 18.7021 17.009 18.5453 17.0985C18.3672 17.2001 18.1342 17.2001 17.6684 17.2001H15.3078C14.5251 17.2001 14.1331 17.2001 13.7778 17.321C13.4634 17.4279 13.1714 17.6031 12.9175 17.8368C12.6307 18.1008 12.4134 18.4655 11.9792 19.1949L11.5 20M11.5 10.4799C11.5 8.91171 11.4999 8.12795 11.2274 7.52899C10.9877 7.00213 10.6052 6.57363 10.1348 6.30519C9.60003 6 8.89981 6 7.49967 6H5.33301C4.8663 6 4.63318 6 4.45492 6.10173C4.29811 6.19121 4.17072 6.33389 4.09083 6.50951C4 6.70917 4 6.97072 4 7.49344V15.7069C4 16.2296 4 16.4906 4.09083 16.6903C4.17072 16.8659 4.29811 17.009 4.45492 17.0985C4.633 17.2001 4.86584 17.2001 5.33164 17.2001H7.69227C8.47495 17.2001 8.86618 17.2001 9.2214 17.321C9.53588 17.4279 9.82927 17.6031 10.0832 17.8368C10.3688 18.0997 10.5848 18.4626 11.0154 19.186L11.5 20" stroke="#121212" stroke-linecap="round" stroke-linejoin="round"/>
</svg>
