<svg width="24" height="24" viewBox="0 0 24 24" fill="none" xmlns="http://www.w3.org/2000/svg">
<path d="M5 14.6669V16.2267C5 17.1974 5 17.6825 5.16954 18.0532C5.31868 18.3794 5.55647 18.6451 5.84917 18.8113C6.18159 19 6.61698 19 7.48646 19H19M5 14.6669V6M5 14.6669L7.99705 11.8839L7.99953 11.8816C8.5417 11.3782 8.81331 11.126 9.10782 11.0235C9.45574 10.9025 9.8305 10.9217 10.1672 11.0773C10.4526 11.2092 10.7028 11.4881 11.2033 12.0458L11.2083 12.0514C11.7166 12.6177 11.9714 12.9017 12.2614 13.0333C12.6045 13.1891 12.9865 13.2025 13.3382 13.0725C13.6364 12.9623 13.9087 12.6972 14.4532 12.1663L18.9998 7.73333" stroke="#121212" stroke-width="0.888879" stroke-linecap="round" stroke-linejoin="round"/>
</svg>
