<svg width="24" height="24" viewBox="0 0 24 24" fill="none" xmlns="http://www.w3.org/2000/svg">
<path d="M11.5 8.76276V12.573M19 10.8251C19 17.0817 14.3424 19.8867 12.3679 20.7948L12.3654 20.7959C12.1578 20.8914 12.0537 20.9393 11.8177 20.9804C11.6682 21.0065 11.3327 21.0065 11.1833 20.9804C10.9463 20.9391 10.8412 20.8911 10.6318 20.7948C8.65731 19.8867 4 17.0817 4 10.8251V7.04835C4 5.98139 4 5.44752 4.20436 5.03999C4.38413 4.68152 4.67076 4.39029 5.02356 4.20764C5.42464 4 5.95008 4 7.00018 4H16.0002C17.0503 4 17.5746 4 17.9757 4.20764C18.3285 4.39029 18.6161 4.68152 18.7958 5.03999C19 5.44712 19 5.98035 19 7.04522V10.8251ZM11.5467 15.4306V15.5259L11.4533 15.5261V15.4306H11.5467Z" stroke="#121212" stroke-linecap="round" stroke-linejoin="round"/>
</svg>
