<svg width="24" height="24" viewBox="0 0 24 24" fill="none" xmlns="http://www.w3.org/2000/svg">
<path d="M14.8021 20.7087H4.79451C4.57352 20.7087 4.38409 20.5351 4.38409 20.3327V18.8865C4.38409 18.6841 4.57352 18.5105 4.79451 18.5105H14.8021C15.0231 18.5105 15.2125 18.6841 15.2125 18.8865V20.3327C15.1809 20.5351 14.9915 20.7087 14.8021 20.7087ZM5.20491 19.9856H14.3601V19.2625H5.20491V19.9856Z" fill="black"/>
<path d="M17.9906 19.2626H14.8021C14.6127 19.2626 14.4548 19.1469 14.4232 18.9734L12.7816 11.7426C12.75 11.6269 12.7816 11.5112 12.8763 11.4533C12.9395 11.3666 13.0657 11.3087 13.192 11.3087H15.9702C16.1596 11.3087 16.3174 11.4244 16.349 11.569L18.3695 18.7998C18.401 18.9155 18.3695 19.0312 18.3063 19.118C18.2116 19.2048 18.0853 19.2626 17.9906 19.2626ZM15.1178 18.5395H17.4855L15.6545 12.0318H13.6024L15.1178 18.5395Z" fill="black"/>
<path d="M14.8021 19.2626H4.79451C4.66823 19.2626 4.57352 19.2047 4.47881 19.1179C4.41567 19.0312 4.38409 18.9155 4.38409 18.8287L6.40455 9.80464C6.43612 9.6311 6.59398 9.51541 6.7834 9.51541H12.7816C12.9711 9.51541 13.1289 9.6311 13.1605 9.80464L13.5077 11.5979L15.1494 18.8287C15.1809 18.9444 15.1494 19.0601 15.0547 19.1179C15.0231 19.2047 14.8968 19.2626 14.8021 19.2626ZM5.26805 18.5395H14.2654L12.7185 11.7425L12.4344 10.2385H7.09909L5.26805 18.5395Z" fill="black"/>
<path d="M17.9907 20.7087H14.8021C14.5811 20.7087 14.3917 20.5351 14.3917 20.3327V18.8865C14.3917 18.6841 14.5811 18.5105 14.8021 18.5105H17.9907C18.2117 18.5105 18.4011 18.6841 18.4011 18.8865V20.3327C18.3695 20.5351 18.1801 20.7087 17.9907 20.7087ZM15.181 19.9856H17.5803V19.2625H15.181V19.9856Z" fill="black"/>
<path d="M17.8747 20.7087H14.4288C14.3012 20.7087 14.1918 20.5449 14.1918 20.3537V18.9884C14.1918 18.7973 14.3012 18.6335 14.4288 18.6335H17.8747C18.0023 18.6335 18.1117 18.7973 18.1117 18.9884V20.3537C18.1117 20.5449 18.0023 20.7087 17.8747 20.7087ZM14.6476 20.0261H17.6559V19.3434H14.6476V20.0261Z" fill="black"/>
<path d="M12.7816 10.2385H6.81495C6.59397 10.2385 6.40454 10.0649 6.40454 9.86245V8.41629C6.40454 8.21383 6.59397 8.04029 6.81495 8.04029H12.7816C13.0026 8.04029 13.192 8.21383 13.192 8.41629V9.86245C13.192 10.0649 13.0026 10.2385 12.7816 10.2385ZM7.19378 9.51537H12.4028V8.79229H7.19378V9.51537Z" fill="black"/>
<path d="M18.5208 20.7087H4.3249C4.14995 20.7087 4 20.549 4 20.3628C4 20.1766 4.14995 20.0169 4.3249 20.0169H18.5707C18.7457 20.0169 18.8956 20.1766 18.8956 20.3628C18.8457 20.549 18.6957 20.7087 18.5208 20.7087Z" fill="black"/>
<path d="M15.3723 8.51849C14.4177 8.51849 13.6062 7.90509 13.3437 7.03218C12.9141 6.9614 12.5084 6.70189 12.2697 6.348C12.1026 6.41878 11.9356 6.46596 11.7446 6.46596C11.6014 6.46596 11.4582 6.44237 11.315 6.39518C11.1241 6.79625 10.7184 7.05577 10.2172 7.05577C9.54893 7.05577 9 6.53674 9 5.87615C9 5.21557 9.52506 4.69654 10.2172 4.69654C10.3604 4.69654 10.5036 4.72013 10.6468 4.76731C10.8377 4.36624 11.2434 4.10673 11.7446 4.10673C12.0549 4.10673 12.3652 4.22469 12.58 4.43702C12.8425 4.22469 13.1766 4.10673 13.5346 4.10673C13.9403 4.10673 14.2983 4.27187 14.6086 4.53139C14.8473 4.43702 15.0859 4.38983 15.3484 4.38983C15.6826 4.38983 16.0167 4.46061 16.3031 4.62575C16.5895 4.29546 16.9952 4.10673 17.4725 4.10673C18.284 4.10673 19 4.76731 19 5.59304C19 6.41877 18.3317 7.07936 17.4725 7.07936C17.4487 7.07936 17.4248 7.07936 17.3771 7.07936C17.1146 7.8815 16.2792 8.51849 15.3723 8.51849ZM13.5823 6.44237C13.7255 6.44237 13.8449 6.53674 13.8687 6.67829C13.9881 7.38606 14.6086 7.9051 15.3723 7.9051C16.1122 7.9051 16.7566 7.36247 16.8759 6.6311C16.8998 6.53673 16.9475 6.46596 17.0191 6.41877C17.0907 6.37159 17.1862 6.348 17.2578 6.37159C17.3294 6.39519 17.4248 6.39518 17.4964 6.39518C17.9976 6.39518 18.4033 5.99411 18.4033 5.49867C18.4033 5.00324 17.9976 4.60217 17.4964 4.60217C17.1623 4.60217 16.852 4.79091 16.7088 5.07402C16.6611 5.14479 16.5895 5.19197 16.5179 5.21556C16.4463 5.23916 16.3508 5.21557 16.2792 5.16838C16.0167 4.97964 15.7303 4.88527 15.4201 4.88527C15.1814 4.88527 14.9427 4.93246 14.7279 5.05042C14.5847 5.1212 14.4415 5.07402 14.3461 4.95605C14.179 4.72013 13.9165 4.57857 13.6301 4.57857C13.3437 4.57857 13.0573 4.72013 12.8902 4.95605C12.8186 5.05042 12.7232 5.09761 12.6277 5.07402C12.5322 5.07402 12.4368 5.00324 12.389 4.90887C12.2936 4.69653 12.0788 4.57857 11.8401 4.57857C11.5298 4.57857 11.2673 4.8145 11.2434 5.1212C11.2434 5.23916 11.1718 5.33353 11.0525 5.38071C10.957 5.4279 10.8377 5.4043 10.7422 5.33353C10.6229 5.23916 10.4797 5.19198 10.3365 5.19198C10.0024 5.19198 9.73986 5.45149 9.73986 5.78179C9.73986 6.11208 10.0024 6.37159 10.3365 6.37159C10.6468 6.37159 10.9093 6.13567 10.9332 5.82897C10.9332 5.711 11.0048 5.61663 11.1241 5.56945C11.2196 5.52226 11.3389 5.54586 11.4344 5.61664C11.5537 5.71101 11.6969 5.75819 11.8401 5.75819C12.0072 5.75819 12.1504 5.68741 12.2697 5.56945C12.3413 5.49867 12.4606 5.45149 12.5561 5.49867C12.6516 5.52227 12.747 5.59304 12.7709 5.711C12.8902 6.08848 13.2243 6.348 13.6301 6.348V6.44237C13.5585 6.44237 13.5585 6.44237 13.5823 6.44237Z" fill="black"/>
</svg>
