<svg width="18" height="15" viewBox="0 0 18 15" fill="none" xmlns="http://www.w3.org/2000/svg">
<path d="M1.01379 14.3168H2.61932M2.61932 14.3168H7.4359M2.61932 14.3168V7.49372C2.61932 7.0672 2.61932 6.85382 2.67148 6.65535C2.7177 6.47947 2.79416 6.31302 2.89684 6.16262C3.01271 5.99289 3.17374 5.85215 3.49656 5.57128L7.3511 2.21762C7.94954 1.69694 8.24879 1.43658 8.58579 1.33748C8.88297 1.2501 9.19972 1.2501 9.4969 1.33748C9.83416 1.43666 10.1338 1.69726 10.7332 2.21873L14.5864 5.57128C14.9093 5.85214 15.0704 5.99289 15.1862 6.16262C15.2889 6.31302 15.3648 6.47947 15.411 6.65535C15.4632 6.85382 15.4635 7.0672 15.4635 7.49372V14.3168M7.4359 14.3168H10.647M7.4359 14.3168V11.1239C7.4359 10.2422 8.15472 9.52749 9.04143 9.52749C9.92813 9.52749 10.647 10.2422 10.647 11.1239V14.3168M10.647 14.3168H15.4635M15.4635 14.3168H17.0691" stroke="black" stroke-width="1.00345" stroke-linecap="round" stroke-linejoin="round"/>
</svg>
