<svg width="25" height="26" viewBox="0 0 25 26" fill="none" xmlns="http://www.w3.org/2000/svg">
<path d="M4.01379 19.3168H5.61932M5.61932 19.3168H10.4359M5.61932 19.3168V12.4937C5.61932 12.0672 5.61932 11.8538 5.67148 11.6554C5.7177 11.4795 5.79416 11.313 5.89684 11.1626C6.01271 10.9929 6.17374 10.8521 6.49656 10.5713L10.3511 7.21762C10.9495 6.69694 11.2488 6.43658 11.5858 6.33748C11.883 6.2501 12.1997 6.2501 12.4969 6.33748C12.8342 6.43666 13.1338 6.69726 13.7332 7.21873L17.5864 10.5713C17.9093 10.8521 18.0704 10.9929 18.1862 11.1626C18.2889 11.313 18.3648 11.4795 18.411 11.6554C18.4632 11.8538 18.4635 12.0672 18.4635 12.4937V19.3168M10.4359 19.3168H13.647M10.4359 19.3168V16.1239C10.4359 15.2422 11.1547 14.5275 12.0414 14.5275C12.9281 14.5275 13.647 15.2422 13.647 16.1239V19.3168M13.647 19.3168H18.4635M18.4635 19.3168H20.0691" stroke="black" stroke-width="1.00345" stroke-linecap="round" stroke-linejoin="round"/>
</svg>
