<svg width="24" height="24" viewBox="0 0 24 24" fill="none" xmlns="http://www.w3.org/2000/svg">
<path d="M6 9.81909V17.6353C6 18.5767 6 19.0471 6.18321 19.4067C6.34436 19.723 6.60132 19.9806 6.91761 20.1418C7.27682 20.3248 7.74731 20.3248 8.68687 20.3248H13.3986C14.3382 20.3248 14.808 20.3248 15.1672 20.1418C15.4835 19.9806 15.7413 19.723 15.9025 19.4067C16.0855 19.0475 16.0855 18.5775 16.0855 17.6379V9.81909" stroke="#121212" stroke-width="0.840457" stroke-linecap="round" stroke-linejoin="round"/>
<path d="M6.80635 5.33121L8.54187 5.84109M6.80635 5.33121L5.99997 5.0943M6.80635 5.33121L8.41911 5.80502M8.54187 5.84109L14.8701 7.70027M8.54187 5.84109C8.76264 5.08964 8.75021 4.67803 8.96004 4.41772M14.8701 7.70027L16.4829 8.17408L17.2893 8.41099M14.8701 7.70027C15.0909 6.94882 15.2011 6.57326 15.1654 6.24081C15.1179 5.79756 14.8963 5.39119 14.5492 5.11141C14.2889 4.90157 13.9132 4.79119 13.1617 4.57042L11.549 4.09661C10.7975 3.87584 10.4216 3.76539 10.0891 3.80108C9.64587 3.84867 9.23982 4.07064 8.96004 4.41772M14.8701 7.70027L8.41911 5.80502M8.96004 4.41772C8.75021 4.67803 8.63988 5.05357 8.41911 5.80502" stroke="#121212" stroke-width="0.840457" stroke-linecap="round" stroke-linejoin="round"/>
<path d="M9.78204 12.3405V13.1809H11.0427V11.9202H9.78204V12.3405Z" fill="black"/>
<path d="M9.78204 13.1809V12.3405V11.9202M9.78204 13.1809H11.0427V11.9202H9.78204M9.78204 13.1809V11.9202" stroke="black" stroke-width="0.840457"/>
<path d="M8.32312 8.45776L8.0398 8.72483L8.47979 9.19158L8.90477 8.79097L8.46478 8.32422L8.32312 8.45776Z" fill="black"/>
<path d="M8.0398 8.72483L8.32312 8.45776L8.46478 8.32422M8.0398 8.72483L8.47979 9.19158L8.90477 8.79097L8.46478 8.32422M8.0398 8.72483L8.46478 8.32422" stroke="black" stroke-width="0.840457"/>
<path d="M9.72908 16.4217L9.36181 17.0201L10.3551 17.6298L10.906 16.7321L9.91272 16.1225L9.72908 16.4217Z" fill="black"/>
<path d="M9.36181 17.0201L9.72908 16.4217L9.91272 16.1225M9.36181 17.0201L10.3551 17.6298L10.906 16.7321L9.91272 16.1225M9.36181 17.0201L9.91272 16.1225" stroke="black" stroke-width="0.840457"/>
<path d="M13.2956 13.7254L13.0532 13.824L13.2275 14.2525L13.591 14.1047L13.4167 13.6761L13.2956 13.7254Z" fill="black"/>
<path d="M13.0532 13.824L13.2956 13.7254L13.4167 13.6761M13.0532 13.824L13.2275 14.2525L13.591 14.1047L13.4167 13.6761M13.0532 13.824L13.4167 13.6761" stroke="black" stroke-width="0.840457"/>
</svg>
