<svg width="24" height="24" viewBox="0 0 24 24" fill="none" xmlns="http://www.w3.org/2000/svg">
<path d="M6.74998 11.1252V6.92526C6.74998 5.94518 6.74998 5.45477 6.94071 5.08043C7.10849 4.75115 7.37601 4.48363 7.70529 4.31586C8.07963 4.12512 8.57004 4.12512 9.55012 4.12512H13.4653C13.5725 4.12512 13.6663 4.12512 13.7499 4.12588M18.999 9.37506C18.9998 9.45871 18.9998 9.55265 18.9998 9.66003V17.0781C18.9998 18.0562 18.9998 18.5454 18.8093 18.9193C18.6415 19.2486 18.3733 19.5166 18.044 19.6844C17.67 19.8749 17.1807 19.8749 16.2025 19.8749L12.8749 19.8749M18.999 9.37506C18.9966 9.12526 18.9873 8.9671 18.9511 8.81623C18.9083 8.63767 18.8373 8.46694 18.7413 8.31037C18.6331 8.13377 18.4826 7.98285 18.1799 7.68019L15.4452 4.94542C15.1427 4.64296 14.9911 4.49136 14.8146 4.38318C14.658 4.28723 14.4874 4.21634 14.3089 4.17347C14.1579 4.13724 13.9998 4.12816 13.7499 4.12588M18.999 9.37506H19M18.999 9.37506H16.5472C15.569 9.37506 15.0792 9.37506 14.7052 9.18451C14.3759 9.01673 14.1084 8.74849 13.9406 8.41921C13.7499 8.04487 13.7499 7.55517 13.7499 6.57509V4.12588M9.37495 13.75L11.1249 15.5M5 19.8749V17.6875L11.5624 11.125L13.7499 13.3125L7.18747 19.8749H5Z" stroke="#121212" stroke-width="0.874989" stroke-linecap="round" stroke-linejoin="round"/>
</svg>
