<svg width="16" height="15" viewBox="0 0 16 15" fill="none" xmlns="http://www.w3.org/2000/svg">
<path d="M1 9.66686V11.2267C1 12.1974 1 12.6825 1.16954 13.0532C1.31868 13.3794 1.55647 13.6451 1.84917 13.8113C2.18159 14 2.61698 14 3.48646 14H15M1 9.66686V1M1 9.66686L3.99705 6.88385L3.99953 6.88164C4.5417 6.37819 4.81331 6.12598 5.10782 6.02354C5.45574 5.90252 5.8305 5.92166 6.16715 6.07728C6.45255 6.20921 6.7028 6.48806 7.2033 7.04577L7.20832 7.05136C7.71659 7.61773 7.97141 7.90167 8.26138 8.0333C8.60453 8.18907 8.98655 8.20248 9.33823 8.07249C9.6364 7.96228 9.90873 7.69721 10.4532 7.1663L14.9998 2.73333" stroke="#121212" stroke-width="0.888879" stroke-linecap="round" stroke-linejoin="round"/>
</svg>
