<svg width="24" height="24" viewBox="0 0 24 24" fill="none" xmlns="http://www.w3.org/2000/svg">
<path d="M16.4444 19.1667C16.4444 17.6939 14.4546 16.5 12 16.5C9.5454 16.5 7.55556 17.6939 7.55556 19.1667M20 16.5004C20 15.4069 18.903 14.4671 17.3333 14.0556M4 16.5004C4 15.4069 5.09697 14.4671 6.66667 14.0556M17.3333 10.4877C17.8789 9.99941 18.2222 9.28982 18.2222 8.50004C18.2222 7.02728 17.0283 5.83337 15.5556 5.83337C14.8726 5.83337 14.2496 6.09013 13.7778 6.51239M6.66667 10.4877C6.12111 9.99941 5.77778 9.28982 5.77778 8.50004C5.77778 7.02728 6.97169 5.83337 8.44444 5.83337C9.12743 5.83337 9.75044 6.09013 10.2222 6.51239M12 13.8334C10.5272 13.8334 9.33333 12.6395 9.33333 11.1667C9.33333 9.69395 10.5272 8.50004 12 8.50004C13.4728 8.50004 14.6667 9.69395 14.6667 11.1667C14.6667 12.6395 13.4728 13.8334 12 13.8334Z" stroke="#121212" stroke-width="0.888889" stroke-linecap="round" stroke-linejoin="round"/>
</svg>
