<svg width="24" height="24" viewBox="0 0 24 24" fill="none" xmlns="http://www.w3.org/2000/svg">
<path d="M4 19H5.6M5.6 19H14.4M5.6 19V14.4241C5.6 13.9973 5.6 13.7837 5.6504 13.5847C5.69507 13.4082 5.76859 13.2409 5.86797 13.0892C5.98004 12.9182 6.13691 12.775 6.44922 12.49L8.29048 10.81C8.89427 10.2591 9.19639 9.98339 9.53799 9.87881C9.83915 9.78662 10.1606 9.78662 10.4617 9.87881C10.8036 9.98348 11.1061 10.2593 11.7109 10.8111L13.5509 12.49C13.8636 12.7753 14.0196 12.9181 14.1317 13.0892C14.2311 13.2409 14.3046 13.4082 14.3492 13.5847C14.3996 13.7837 14.4 13.9973 14.4 14.4241V19M14.4 19H18.4M18.4 19H20M18.4 19V8.59749C18.4 7.68918 18.4 7.23435 18.2258 6.88708C18.0724 6.58132 17.827 6.33291 17.5259 6.17711C17.1837 6 16.7362 6 15.8402 6H10.5602C9.66407 6 9.2157 6 8.87344 6.17711C8.57238 6.33291 8.32779 6.58132 8.17439 6.88708C8 7.23469 8 7.69007 8 8.60016V10.8752" stroke="#121212" stroke-width="0.85" stroke-linecap="round" stroke-linejoin="round"/>
</svg>
