<svg width="24" height="24" viewBox="0 0 24 24" fill="none" xmlns="http://www.w3.org/2000/svg">
<path d="M8.71429 16.6429H14.2857M8.71429 13.8572H14.2857M12.4289 3.64369C12.3402 3.64288 12.2404 3.64288 12.1265 3.64288H7.97161C6.93151 3.64288 6.41108 3.64288 6.01381 3.8453C5.66437 4.02335 5.38047 4.30725 5.20242 4.65669C5 5.05396 5 5.5744 5 6.61449V17.3859C5 18.426 5 18.9458 5.20242 19.3431C5.38047 19.6925 5.66437 19.9769 6.01381 20.155C6.41069 20.3572 6.9305 20.3572 7.96859 20.3572L15.0314 20.3572C16.0695 20.3572 16.5886 20.3572 16.9854 20.155C17.3349 19.9769 17.6197 19.6925 17.7978 19.3431C18 18.9462 18 18.4271 18 17.3891V9.51673C18 9.40283 17.9999 9.30302 17.9991 9.21431M12.4289 3.64369C12.694 3.64611 12.861 3.65594 13.0212 3.69439C13.2107 3.73989 13.3923 3.81491 13.5585 3.91674C13.7458 4.03155 13.9067 4.19242 14.2277 4.51342L17.1299 7.41565C17.4511 7.73685 17.6108 7.897 17.7257 8.08442C17.8275 8.25058 17.9028 8.43176 17.9483 8.62126C17.9868 8.7814 17.9967 8.94925 17.9991 9.21431M12.4289 3.64369L12.4286 6.24308C12.4286 7.28317 12.4286 7.80302 12.631 8.20029C12.809 8.54973 13.0929 8.83404 13.4424 9.01209C13.8393 9.21431 14.3591 9.21431 15.3971 9.21431H17.9991" stroke="#121212" stroke-width="0.928571" stroke-linecap="round" stroke-linejoin="round"/>
</svg>
