<svg width="24" height="24" viewBox="0 0 24 24" fill="none" xmlns="http://www.w3.org/2000/svg">
<path d="M9.33327 12.8889H14.6665M4 6.66673V16.2666C4 17.2623 4 17.7596 4.19376 18.1398C4.3642 18.4743 4.63597 18.747 4.97047 18.9175C5.35039 19.111 5.84797 19.111 6.84166 19.111H17.1587C18.1524 19.111 18.6493 19.111 19.0292 18.9175C19.3637 18.747 19.6358 18.4747 19.8062 18.1402C20 17.7599 20 17.2621 20 16.2664L20 9.51095C20 8.51531 20 8.01749 19.8062 7.63721C19.6358 7.3027 19.3631 7.03094 19.0286 6.8605C18.6483 6.66673 18.151 6.66673 17.1554 6.66673H11.9999M4 6.66673H11.9999M4 6.66673C4 5.68491 4.79593 4.88898 5.77776 4.88898H9.04395C9.47878 4.88898 9.69696 4.88898 9.90155 4.9381C10.0829 4.98165 10.2558 5.05365 10.4149 5.15113C10.5942 5.26103 10.7482 5.41504 11.0555 5.7223L11.9999 6.66673" stroke="#121212" stroke-width="0.888878" stroke-linecap="round" stroke-linejoin="round"/>
</svg>
